<mxfile host="app.diagrams.net" agent="Mozilla/5.0 (X11; Linux x86_64; rv:142.0) Gecko/20100101 Firefox/142.0" version="28.1.2" pages="2">
  <diagram name="pipelines" id="58cdce13-f638-feb5-8d6f-7d28b1aa9fa0">
    <mxGraphModel dx="1266" dy="688" grid="1" gridSize="10" guides="1" tooltips="1" connect="1" arrows="1" fold="1" page="1" pageScale="1" pageWidth="1100" pageHeight="850" background="none" math="0" shadow="0">
      <root>
        <mxCell id="0" />
        <mxCell id="1" parent="0" />
        <mxCell id="MJA81eZ-Jpp3-eZPRiix-2" style="edgeStyle=orthogonalEdgeStyle;rounded=0;orthogonalLoop=1;jettySize=auto;html=1;entryX=0;entryY=0.5;entryDx=0;entryDy=0;strokeColor=#d3869b;" parent="1" source="382b91b5511bd0f7-6" target="382b91b5511bd0f7-7" edge="1">
          <mxGeometry relative="1" as="geometry" />
        </mxCell>
        <mxCell id="382b91b5511bd0f7-6" value="Normalise sentence" style="rounded=1;whiteSpace=wrap;html=1;arcSize=24;fillColor=#3C3836;strokeColor=#d3869b;shadow=0;comic=0;labelBackgroundColor=none;fontFamily=Verdana;fontSize=12;fontColor=#fbf1c7;align=center;" parent="1" vertex="1">
          <mxGeometry x="190" y="210" width="120" height="60" as="geometry" />
        </mxCell>
        <mxCell id="MJA81eZ-Jpp3-eZPRiix-3" style="edgeStyle=orthogonalEdgeStyle;rounded=0;orthogonalLoop=1;jettySize=auto;html=1;entryX=0;entryY=0.5;entryDx=0;entryDy=0;exitX=1;exitY=0.5;exitDx=0;exitDy=0;strokeColor=#d3869b;" parent="1" source="382b91b5511bd0f7-7" target="382b91b5511bd0f7-9" edge="1">
          <mxGeometry relative="1" as="geometry">
            <Array as="points">
              <mxPoint x="540" y="240" />
              <mxPoint x="540" y="350" />
            </Array>
          </mxGeometry>
        </mxCell>
        <mxCell id="MJA81eZ-Jpp3-eZPRiix-4" style="edgeStyle=orthogonalEdgeStyle;rounded=0;orthogonalLoop=1;jettySize=auto;html=1;entryX=0;entryY=0.5;entryDx=0;entryDy=0;strokeColor=#d3869b;" parent="1" source="382b91b5511bd0f7-7" target="MJA81eZ-Jpp3-eZPRiix-5" edge="1">
          <mxGeometry relative="1" as="geometry">
            <mxPoint x="530" y="200" as="targetPoint" />
            <Array as="points">
              <mxPoint x="540" y="240" />
              <mxPoint x="540" y="120" />
            </Array>
          </mxGeometry>
        </mxCell>
        <mxCell id="382b91b5511bd0f7-7" value="Generate features" style="rounded=1;whiteSpace=wrap;html=1;arcSize=24;fillColor=#3C3836;strokeColor=#d3869b;shadow=0;comic=0;labelBackgroundColor=none;fontFamily=Verdana;fontSize=12;fontColor=#fbf1c7;align=center;" parent="1" vertex="1">
          <mxGeometry x="350" y="210" width="120" height="60" as="geometry" />
        </mxCell>
        <mxCell id="MJA81eZ-Jpp3-eZPRiix-5" value="Training" style="swimlane;rounded=1;fillColor=#b16286;strokeColor=#B16286;fontColor=#fbf1c7;" parent="1" vertex="1">
          <mxGeometry x="570" y="40" width="320" height="160" as="geometry" />
        </mxCell>
        <mxCell id="382b91b5511bd0f7-5" value="Evaluate model" style="rounded=1;whiteSpace=wrap;html=1;arcSize=24;fillColor=#3C3836;strokeColor=#d3869b;shadow=0;comic=0;labelBackgroundColor=none;fontFamily=Verdana;fontSize=12;fontColor=#fbf1c7;align=center;" parent="MJA81eZ-Jpp3-eZPRiix-5" vertex="1">
          <mxGeometry x="190" y="40" width="120" height="60" as="geometry" />
        </mxCell>
        <mxCell id="MJA81eZ-Jpp3-eZPRiix-9" value="" style="endArrow=classic;html=1;rounded=0;entryX=0.5;entryY=1;entryDx=0;entryDy=0;edgeStyle=orthogonalEdgeStyle;exitX=0;exitY=0.5;exitDx=0;exitDy=0;strokeColor=#d3869b;" parent="MJA81eZ-Jpp3-eZPRiix-5" source="MJA81eZ-Jpp3-eZPRiix-5" target="382b91b5511bd0f7-5" edge="1">
          <mxGeometry width="50" height="50" relative="1" as="geometry">
            <mxPoint x="-60" y="60" as="sourcePoint" />
            <mxPoint x="50" y="80" as="targetPoint" />
            <Array as="points">
              <mxPoint x="20" y="80" />
              <mxPoint x="20" y="140" />
              <mxPoint x="250" y="140" />
            </Array>
          </mxGeometry>
        </mxCell>
        <mxCell id="382b91b5511bd0f7-10" value="Train model" style="rounded=1;whiteSpace=wrap;html=1;arcSize=24;fillColor=#3C3836;strokeColor=#d3869b;shadow=0;comic=0;labelBackgroundColor=none;fontFamily=Verdana;fontSize=12;fontColor=#fbf1c7;align=center;" parent="MJA81eZ-Jpp3-eZPRiix-5" vertex="1">
          <mxGeometry x="40" y="40" width="120" height="60" as="geometry" />
        </mxCell>
        <mxCell id="MJA81eZ-Jpp3-eZPRiix-7" value="" style="endArrow=classic;html=1;rounded=0;exitX=0;exitY=0.5;exitDx=0;exitDy=0;entryX=0;entryY=0.5;entryDx=0;entryDy=0;edgeStyle=orthogonalEdgeStyle;strokeColor=#d3869b;" parent="MJA81eZ-Jpp3-eZPRiix-5" source="MJA81eZ-Jpp3-eZPRiix-5" target="382b91b5511bd0f7-10" edge="1">
          <mxGeometry width="50" height="50" relative="1" as="geometry">
            <mxPoint x="-80" y="110" as="sourcePoint" />
            <mxPoint x="-30" y="60" as="targetPoint" />
            <Array as="points">
              <mxPoint x="20" y="80" />
              <mxPoint x="20" y="70" />
            </Array>
          </mxGeometry>
        </mxCell>
        <mxCell id="MJA81eZ-Jpp3-eZPRiix-10" value="" style="edgeStyle=orthogonalEdgeStyle;rounded=0;orthogonalLoop=1;jettySize=auto;html=1;strokeColor=#d3869b;" parent="MJA81eZ-Jpp3-eZPRiix-5" source="382b91b5511bd0f7-10" target="382b91b5511bd0f7-5" edge="1">
          <mxGeometry relative="1" as="geometry" />
        </mxCell>
        <mxCell id="MJA81eZ-Jpp3-eZPRiix-6" value="Pre-processing" style="swimlane;rounded=1;fillColor=#b16286;strokeColor=#B16286;fontColor=#fbf1c7;" parent="1" vertex="1">
          <mxGeometry x="170" y="170" width="330" height="130" as="geometry" />
        </mxCell>
        <mxCell id="MJA81eZ-Jpp3-eZPRiix-11" value="Parsing" style="swimlane;rounded=1;fillColor=#b16286;strokeColor=#B16286;fontColor=#fbf1c7;" parent="1" vertex="1">
          <mxGeometry x="570" y="285" width="320" height="115" as="geometry" />
        </mxCell>
        <mxCell id="MJA81eZ-Jpp3-eZPRiix-1" value="Post-process tokens" style="rounded=1;whiteSpace=wrap;html=1;arcSize=24;fillColor=#3C3836;strokeColor=#d3869b;shadow=0;comic=0;labelBackgroundColor=none;fontFamily=Verdana;fontSize=12;fontColor=#fbf1c7;align=center;" parent="MJA81eZ-Jpp3-eZPRiix-11" vertex="1">
          <mxGeometry x="190" y="35" width="120" height="60" as="geometry" />
        </mxCell>
        <mxCell id="MJA81eZ-Jpp3-eZPRiix-14" style="edgeStyle=orthogonalEdgeStyle;rounded=0;orthogonalLoop=1;jettySize=auto;html=1;entryX=0;entryY=0.5;entryDx=0;entryDy=0;strokeColor=#d3869b;" parent="MJA81eZ-Jpp3-eZPRiix-11" source="382b91b5511bd0f7-9" target="MJA81eZ-Jpp3-eZPRiix-1" edge="1">
          <mxGeometry relative="1" as="geometry" />
        </mxCell>
        <mxCell id="382b91b5511bd0f7-9" value="Label tokens" style="rounded=1;whiteSpace=wrap;html=1;arcSize=24;fillColor=#3C3836;strokeColor=#d3869b;shadow=0;comic=0;labelBackgroundColor=none;fontFamily=Verdana;fontSize=12;fontColor=#fbf1c7;align=center;" parent="MJA81eZ-Jpp3-eZPRiix-11" vertex="1">
          <mxGeometry x="40" y="35" width="120" height="60" as="geometry" />
        </mxCell>
        <mxCell id="MJA81eZ-Jpp3-eZPRiix-15" value="" style="ellipse;html=1;shape=startState;fillColor=#3C3836;strokeColor=#d3869b;shadow=0;" parent="1" vertex="1">
          <mxGeometry x="100" y="225" width="30" height="30" as="geometry" />
        </mxCell>
        <mxCell id="MJA81eZ-Jpp3-eZPRiix-16" value="" style="edgeStyle=orthogonalEdgeStyle;html=1;verticalAlign=bottom;endArrow=open;endSize=8;strokeColor=#d3869b;rounded=0;entryX=0;entryY=0.5;entryDx=0;entryDy=0;" parent="1" source="MJA81eZ-Jpp3-eZPRiix-15" target="382b91b5511bd0f7-6" edge="1">
          <mxGeometry relative="1" as="geometry">
            <mxPoint x="105" y="310" as="targetPoint" />
          </mxGeometry>
        </mxCell>
        <mxCell id="MJA81eZ-Jpp3-eZPRiix-19" style="edgeStyle=orthogonalEdgeStyle;rounded=0;orthogonalLoop=1;jettySize=auto;html=1;entryX=0;entryY=0.5;entryDx=0;entryDy=0;entryPerimeter=0;strokeColor=#d3869b;" parent="1" source="382b91b5511bd0f7-5" target="MJA81eZ-Jpp3-eZPRiix-22" edge="1">
          <mxGeometry relative="1" as="geometry">
            <mxPoint x="919.9999999999998" y="110" as="targetPoint" />
          </mxGeometry>
        </mxCell>
        <mxCell id="MJA81eZ-Jpp3-eZPRiix-20" value="" style="html=1;shape=mxgraph.sysml.flowFinal;strokeWidth=2;verticalLabelPosition=bottom;verticalAlignment=top;strokeColor=#d3869b;fillColor=#3C3836;" parent="1" vertex="1">
          <mxGeometry x="920" y="335" width="30" height="30" as="geometry" />
        </mxCell>
        <mxCell id="MJA81eZ-Jpp3-eZPRiix-21" style="edgeStyle=orthogonalEdgeStyle;rounded=0;orthogonalLoop=1;jettySize=auto;html=1;entryX=0;entryY=0.5;entryDx=0;entryDy=0;entryPerimeter=0;strokeColor=#d3869b;" parent="1" source="MJA81eZ-Jpp3-eZPRiix-1" target="MJA81eZ-Jpp3-eZPRiix-20" edge="1">
          <mxGeometry relative="1" as="geometry" />
        </mxCell>
        <mxCell id="MJA81eZ-Jpp3-eZPRiix-22" value="" style="html=1;shape=mxgraph.sysml.flowFinal;strokeWidth=2;verticalLabelPosition=bottom;verticalAlignment=top;strokeColor=#d3869b;fillColor=#3C3836;" parent="1" vertex="1">
          <mxGeometry x="920" y="95" width="30" height="30" as="geometry" />
        </mxCell>
      </root>
    </mxGraphModel>
  </diagram>
  <diagram id="4u45FuYw5QhVUhbLedxj" name="name_postprocessing">
    <mxGraphModel dx="1055" dy="573" grid="1" gridSize="10" guides="1" tooltips="1" connect="1" arrows="1" fold="1" page="1" pageScale="1" pageWidth="827" pageHeight="1169" math="0" shadow="0">
      <root>
        <mxCell id="0" />
        <mxCell id="1" parent="0" />
        <mxCell id="PjYTX4hfVxwW8rbd35LS-4" value="Ingredient name post-processing" style="swimlane;rounded=1;fillColor=#b16286;strokeColor=#B16286;fontColor=#fbf1c7;" vertex="1" parent="1">
          <mxGeometry x="70" y="40" width="640" height="130" as="geometry" />
        </mxCell>
        <mxCell id="PjYTX4hfVxwW8rbd35LS-1" style="edgeStyle=orthogonalEdgeStyle;rounded=0;orthogonalLoop=1;jettySize=auto;html=1;entryX=0;entryY=0.5;entryDx=0;entryDy=0;strokeColor=#d3869b;" edge="1" parent="PjYTX4hfVxwW8rbd35LS-4" source="PjYTX4hfVxwW8rbd35LS-2" target="PjYTX4hfVxwW8rbd35LS-3">
          <mxGeometry relative="1" as="geometry" />
        </mxCell>
        <mxCell id="PjYTX4hfVxwW8rbd35LS-2" value="Extract NAME labels" style="rounded=1;whiteSpace=wrap;html=1;arcSize=24;fillColor=#3C3836;strokeColor=#d3869b;shadow=0;comic=0;labelBackgroundColor=none;fontFamily=Verdana;fontSize=12;fontColor=#fbf1c7;align=center;" vertex="1" parent="PjYTX4hfVxwW8rbd35LS-4">
          <mxGeometry x="16" y="40" width="120" height="60" as="geometry" />
        </mxCell>
        <mxCell id="PjYTX4hfVxwW8rbd35LS-9" value="" style="edgeStyle=orthogonalEdgeStyle;rounded=0;orthogonalLoop=1;jettySize=auto;html=1;strokeColor=#D3869B;" edge="1" parent="PjYTX4hfVxwW8rbd35LS-4" source="PjYTX4hfVxwW8rbd35LS-3" target="PjYTX4hfVxwW8rbd35LS-8">
          <mxGeometry relative="1" as="geometry" />
        </mxCell>
        <mxCell id="PjYTX4hfVxwW8rbd35LS-3" value="Group tokens by NAME label" style="rounded=1;whiteSpace=wrap;html=1;arcSize=24;fillColor=#3C3836;strokeColor=#d3869b;shadow=0;comic=0;labelBackgroundColor=none;fontFamily=Verdana;fontSize=12;fontColor=#fbf1c7;align=center;" vertex="1" parent="PjYTX4hfVxwW8rbd35LS-4">
          <mxGeometry x="176" y="40" width="120" height="60" as="geometry" />
        </mxCell>
        <mxCell id="PjYTX4hfVxwW8rbd35LS-11" value="" style="edgeStyle=orthogonalEdgeStyle;rounded=0;orthogonalLoop=1;jettySize=auto;html=1;strokeColor=#D3869B;" edge="1" parent="PjYTX4hfVxwW8rbd35LS-4" source="PjYTX4hfVxwW8rbd35LS-8" target="PjYTX4hfVxwW8rbd35LS-10">
          <mxGeometry relative="1" as="geometry" />
        </mxCell>
        <mxCell id="PjYTX4hfVxwW8rbd35LS-8" value="Construct names from NAME groups" style="rounded=1;whiteSpace=wrap;html=1;arcSize=24;fillColor=#3C3836;strokeColor=#d3869b;shadow=0;comic=0;labelBackgroundColor=none;fontFamily=Verdana;fontSize=12;fontColor=#fbf1c7;align=center;" vertex="1" parent="PjYTX4hfVxwW8rbd35LS-4">
          <mxGeometry x="336" y="40" width="120" height="60" as="geometry" />
        </mxCell>
        <mxCell id="PjYTX4hfVxwW8rbd35LS-10" value="Create IngredientText objects" style="rounded=1;whiteSpace=wrap;html=1;arcSize=24;fillColor=#3C3836;strokeColor=#d3869b;shadow=0;comic=0;labelBackgroundColor=none;fontFamily=Verdana;fontSize=12;fontColor=#fbf1c7;align=center;" vertex="1" parent="PjYTX4hfVxwW8rbd35LS-4">
          <mxGeometry x="496" y="40" width="120" height="60" as="geometry" />
        </mxCell>
        <mxCell id="PjYTX4hfVxwW8rbd35LS-5" value="" style="ellipse;html=1;shape=startState;fillColor=#3C3836;strokeColor=#d3869b;shadow=0;" vertex="1" parent="1">
          <mxGeometry x="20" y="95" width="30" height="30" as="geometry" />
        </mxCell>
        <mxCell id="PjYTX4hfVxwW8rbd35LS-6" value="" style="edgeStyle=orthogonalEdgeStyle;html=1;verticalAlign=bottom;endArrow=open;endSize=8;strokeColor=#d3869b;rounded=0;entryX=0;entryY=0.5;entryDx=0;entryDy=0;" edge="1" parent="1" source="PjYTX4hfVxwW8rbd35LS-5" target="PjYTX4hfVxwW8rbd35LS-2">
          <mxGeometry relative="1" as="geometry">
            <mxPoint x="-5" y="180" as="targetPoint" />
          </mxGeometry>
        </mxCell>
        <mxCell id="6pMCPs8MnE8j_8LokYQL-1" value="" style="html=1;shape=mxgraph.sysml.flowFinal;strokeWidth=2;verticalLabelPosition=bottom;verticalAlignment=top;strokeColor=#d3869b;fillColor=#3C3836;" vertex="1" parent="1">
          <mxGeometry x="740" y="95" width="30" height="30" as="geometry" />
        </mxCell>
        <mxCell id="6pMCPs8MnE8j_8LokYQL-6" value="" style="edgeStyle=orthogonalEdgeStyle;rounded=0;orthogonalLoop=1;jettySize=auto;html=1;strokeColor=#D3869B;" edge="1" parent="1" source="PjYTX4hfVxwW8rbd35LS-10" target="6pMCPs8MnE8j_8LokYQL-1">
          <mxGeometry relative="1" as="geometry" />
        </mxCell>
      </root>
    </mxGraphModel>
  </diagram>
</mxfile>
